<svg width="1135.227" height="1525.393" viewBox="0 0 1135.227 1525.393" xmlns="http://www.w3.org/2000/svg"><g id="svgGroup" stroke-linecap="round" fill-rule="evenodd" font-size="9pt" stroke="#000" stroke-width="0.25mm" fill="#000066" style="stroke:#000;stroke-width:0.25mm;fill:#000066"><path d="M 688.478 364.259 L 576.173 747.072 A 3990.604 3990.604 0 0 1 490.542 1001.468 Q 320.359 1451.631 132.814 1518.556 A 81.002 81.002 0 0 1 117.794 1522.982 Q 110.234 1524.488 101.397 1525.053 A 173.621 173.621 0 0 1 90.333 1525.392 Q 64.454 1525.392 48.341 1519.044 A 99.637 99.637 0 0 1 33.57 1511.842 A 76.087 76.087 0 0 1 21.485 1502.931 A 88.985 88.985 0 0 1 11.588 1493.593 Q 6.881 1488.349 4.086 1483.104 A 32.341 32.341 0 0 1 0.001 1467.775 A 54.511 54.511 0 0 1 0.55 1459.718 Q 2.198 1448.732 8.79 1444.337 L 34.181 1428.712 Q 170.433 1339.77 284.682 964.796 A 3040.922 3040.922 0 0 0 291.993 940.431 L 362.306 702.15 A 6885.875 6885.875 0 0 1 420.27 514.791 Q 478.523 336.192 531.547 214.318 A 1896.114 1896.114 0 0 1 539.064 197.267 Q 479.997 192.033 442.683 190.807 A 637.868 637.868 0 0 0 421.876 190.431 A 654.628 654.628 0 0 0 365.205 192.705 Q 309.337 197.579 274.366 212.903 A 137.426 137.426 0 0 0 255.86 222.658 Q 219.334 246.293 198.828 272.816 A 138.986 138.986 0 0 0 186.036 292.482 Q 166.017 330.08 165.04 344.728 A 85.006 85.006 0 0 1 162.888 356.974 Q 158.505 373.874 147.462 379.396 A 65.716 65.716 0 0 1 131.227 384.889 Q 122.315 386.72 111.817 386.72 A 65.472 65.472 0 0 1 88.755 382.322 Q 80.283 379.148 71.588 373.685 A 120.328 120.328 0 0 1 68.36 371.583 A 127.247 127.247 0 0 1 31.251 333.009 A 155.338 155.338 0 0 1 5.61 246.265 A 187.091 187.091 0 0 1 6.837 225.099 Q 13.673 165.041 46.388 121.583 Q 79.103 78.126 124.024 50.783 A 337.315 337.315 0 0 1 253.052 3.275 A 325.577 325.577 0 0 1 299.317 0.001 A 1646.026 1646.026 0 0 1 421.594 4.386 A 1404.922 1404.922 0 0 1 474.122 9.279 A 5540.269 5540.269 0 0 1 638.673 30.275 A 9812.113 9812.113 0 0 0 714.776 40.231 Q 861.907 58.849 912.255 59.545 A 272.659 272.659 0 0 0 916.017 59.572 A 849.227 849.227 0 0 0 943.879 59.145 Q 982.789 57.863 1004.396 52.736 Q 1033.204 45.9 1053.712 32.228 Q 1071.488 20.377 1080.092 15.497 A 96.099 96.099 0 0 1 1082.521 14.162 A 28.483 28.483 0 0 1 1088.353 11.94 Q 1094.421 10.287 1103.423 9.891 A 135.86 135.86 0 0 1 1109.376 9.767 A 26.726 26.726 0 0 1 1121.726 12.428 Q 1137.717 20.641 1134.767 54.201 A 228.051 228.051 0 0 1 1128.419 91.862 A 165.362 165.362 0 0 1 1113.282 130.373 Q 1095.704 162.111 1066.896 183.107 Q 1038.087 204.103 1000.489 214.357 A 242.7 242.7 0 0 1 971.641 220.195 Q 956.44 222.403 938.506 223.507 A 630.402 630.402 0 0 1 899.903 224.611 A 1178.37 1178.37 0 0 1 856.864 223.753 Q 805.482 221.864 736.329 215.822 A 1700.556 1700.556 0 0 0 715.634 275.476 Q 702.21 316.469 688.478 364.259 Z" vector-effect="non-scaling-stroke"/></g></svg>